<?xml version="1.0" encoding="utf-8"?>
<!-- Generator: Adobe Illustrator 27.0.1, SVG Export Plug-In . SVG Version: 6.00 Build 0)  -->
<svg version="1.1" xmlns="http://www.w3.org/2000/svg" xmlns:xlink="http://www.w3.org/1999/xlink" x="0px" y="0px"
	 viewBox="0 0 500 192.57" style="enable-background:new 0 0 500 192.57;" xml:space="preserve">
<style type="text/css">
	.st0{opacity:0.5;}
	.st1{fill:#FFFFFF;}
</style>
<g id="Layer_2">
	<rect y="0.15" class="st0" width="500.31" height="384.85"/>
</g>
<g id="Layer_1">
	<rect x="38.49" y="154.09" class="st1" width="38.49" height="38.49"/>
	<rect y="115.6" class="st1" width="38.49" height="38.49"/>
	<rect x="38.49" y="77.12" class="st1" width="38.49" height="38.49"/>
	<rect y="38.63" class="st1" width="38.49" height="38.49"/>
	<rect x="38.49" y="0.15" class="st1" width="38.49" height="38.49"/>
	<rect x="115.46" y="154.09" class="st1" width="38.49" height="38.49"/>
	<rect x="76.97" y="115.6" class="st1" width="38.49" height="38.49"/>
	<rect x="115.46" y="77.12" class="st1" width="38.49" height="38.49"/>
	<rect x="76.97" y="38.63" class="st1" width="38.49" height="38.49"/>
	<rect x="115.46" y="0.15" class="st1" width="38.49" height="38.49"/>
	<rect x="192.43" y="154.09" class="st1" width="38.49" height="38.49"/>
	<rect x="153.94" y="115.6" class="st1" width="38.49" height="38.49"/>
	<rect x="192.43" y="77.12" class="st1" width="38.49" height="38.49"/>
	<rect x="153.94" y="38.63" class="st1" width="38.49" height="38.49"/>
	<rect x="192.43" y="0.15" class="st1" width="38.49" height="38.49"/>
	<rect x="269.4" y="154.09" class="st1" width="38.49" height="38.49"/>
	<rect x="230.91" y="115.6" class="st1" width="38.49" height="38.49"/>
	<rect x="269.4" y="77.12" class="st1" width="38.49" height="38.49"/>
	<rect x="230.91" y="38.63" class="st1" width="38.49" height="38.49"/>
	<rect x="269.4" y="0.15" class="st1" width="38.49" height="38.49"/>
	<rect x="346.37" y="154.09" class="st1" width="38.49" height="38.49"/>
	<rect x="307.88" y="115.6" class="st1" width="38.49" height="38.49"/>
	<rect x="346.37" y="77.12" class="st1" width="38.49" height="38.49"/>
	<rect x="307.88" y="38.63" class="st1" width="38.49" height="38.49"/>
	<rect x="346.37" y="0.15" class="st1" width="38.49" height="38.49"/>
	<rect x="423.34" y="154.09" class="st1" width="38.49" height="38.49"/>
	<rect x="384.85" y="115.6" class="st1" width="38.49" height="38.49"/>
	<rect x="423.34" y="77.12" class="st1" width="38.49" height="38.49"/>
	<rect x="384.85" y="38.63" class="st1" width="38.49" height="38.49"/>
	<rect x="423.34" y="0.15" class="st1" width="38.49" height="38.49"/>
	<rect x="461.82" y="115.6" class="st1" width="38.49" height="38.49"/>
	<rect x="461.82" y="38.63" class="st1" width="38.49" height="38.49"/>
</g>
</svg>
